<svg xmlns="http://www.w3.org/2000/svg" version="1" xmlns:xlink="http://www.w3.org/1999/xlink" width="500" zoomAndPan="magnify" viewBox="0 0 375 374.999991" height="500" preserveAspectRatio="xMidYMid meet"><defs><g></g><clipPath id="9e87b01b52"><path d="M 375 37.5 L 375 337.5 C 375 358.210938 358.210938 375 337.5 375 L 37.5 375 C 16.789062 375 0 358.210938 0 337.5 L 0 37.5 C 0 16.789062 16.789062 0 37.5 0 L 337.5 0 C 347.445312 0 356.984375 3.949219 364.015625 10.984375 C 371.050781 18.015625 375 27.554688 375 37.5 Z M 375 37.5 " clip-rule="nonzero"></path></clipPath></defs><g clip-path="url(#9e87b01b52)"><path stroke-linecap="butt" transform="matrix(0.75, 0, 0, 0.75, 0.0000045, 0)" fill="none" stroke-linejoin="miter" d="M 499.999995 50 L 499.999995 450.000001 C 499.999995 477.614584 477.614578 500.000001 449.999995 500.000001 L 49.999994 500.000001 C 22.385411 500.000001 -0.000006 477.614584 -0.000006 450.000001 L -0.000006 50 C -0.000006 22.385417 22.385411 0 49.999994 0 L 449.999995 0 C 463.260411 0 475.979161 5.265625 485.354161 14.645833 C 494.73437 24.020833 499.999995 36.739583 499.999995 50 Z M 499.999995 50 " stroke="#a8d4d6" stroke-width="50" stroke-opacity="1" stroke-miterlimit="4"></path></g><g fill="#a8d4d6" fill-opacity="1"><g transform="translate(51.800396, 269.249954)"><g><path d="M 99.796875 -34 C 105.535156 -34 111.101562 -34.863281 116.5 -36.59375 C 121.894531 -38.332031 125.863281 -40 128.40625 -41.59375 L 132.203125 -44.203125 L 148.203125 -12.203125 C 147.671875 -11.796875 146.9375 -11.257812 146 -10.59375 C 145.0625 -9.925781 142.894531 -8.691406 139.5 -6.890625 C 136.101562 -5.097656 132.46875 -3.535156 128.59375 -2.203125 C 124.726562 -0.867188 119.660156 0.328125 113.390625 1.390625 C 107.128906 2.460938 100.664062 3 94 3 C 78.664062 3 64.128906 -0.765625 50.390625 -8.296875 C 36.660156 -15.828125 25.59375 -26.191406 17.1875 -39.390625 C 8.789062 -52.597656 4.59375 -66.867188 4.59375 -82.203125 C 4.59375 -93.796875 7.0625 -104.925781 12 -115.59375 C 16.9375 -126.257812 23.503906 -135.394531 31.703125 -143 C 39.898438 -150.601562 49.460938 -156.671875 60.390625 -161.203125 C 71.328125 -165.734375 82.53125 -168 94 -168 C 104.664062 -168 114.5 -166.734375 123.5 -164.203125 C 132.5 -161.671875 138.863281 -159.132812 142.59375 -156.59375 L 148.203125 -152.796875 L 132.203125 -120.796875 C 131.265625 -121.597656 129.863281 -122.566406 128 -123.703125 C 126.132812 -124.835938 122.398438 -126.335938 116.796875 -128.203125 C 111.203125 -130.066406 105.535156 -131 99.796875 -131 C 90.734375 -131 82.597656 -129.53125 75.390625 -126.59375 C 68.191406 -123.664062 62.492188 -119.800781 58.296875 -115 C 54.097656 -110.195312 50.898438 -105.03125 48.703125 -99.5 C 46.503906 -93.96875 45.40625 -88.332031 45.40625 -82.59375 C 45.40625 -70.0625 50.101562 -58.828125 59.5 -48.890625 C 68.894531 -38.960938 82.328125 -34 99.796875 -34 Z M 99.796875 -34 "></path></g></g></g><g fill="#a8d4d6" fill-opacity="1"><g transform="translate(207.196389, 269.249954)"><g><path d="M 106.40625 -165 L 106.40625 -132 L 49.59375 -132 L 49.59375 -99.203125 L 104 -99.203125 L 104 -66.203125 L 49.59375 -66.203125 L 49.59375 -33 L 106.40625 -33 L 106.40625 0 L 12 0 L 12 -165 Z M 106.40625 -165 "></path></g></g></g></svg>