<svg xmlns="http://www.w3.org/2000/svg" xmlns:xlink="http://www.w3.org/1999/xlink" width="400" zoomAndPan="magnify" viewBox="0 0 300 149.999998" height="200" preserveAspectRatio="xMidYMid meet" version="1.0"><defs><g/><clipPath id="c1fd228f59"><path d="M 11.25 0 L 288.75 0 C 291.734375 0 294.59375 1.183594 296.703125 3.296875 C 298.816406 5.40625 300 8.265625 300 11.25 L 300 138.75 C 300 144.964844 294.964844 150 288.75 150 L 11.25 150 C 8.265625 150 5.40625 148.816406 3.296875 146.703125 C 1.183594 144.59375 0 141.734375 0 138.75 L 0 11.25 C 0 5.035156 5.035156 0 11.25 0 Z M 11.25 0 " clip-rule="nonzero"/></clipPath></defs><g fill="#a8d4d6" fill-opacity="1"><g transform="translate(37.230681, 71.99999)"><g><path d="M 24.953125 -8.5 C 26.378906 -8.5 27.769531 -8.710938 29.125 -9.140625 C 30.476562 -9.578125 31.46875 -10 32.09375 -10.40625 L 33.046875 -11.046875 L 37.046875 -3.046875 C 36.910156 -2.953125 36.726562 -2.820312 36.5 -2.65625 C 36.269531 -2.488281 35.726562 -2.175781 34.875 -1.71875 C 34.019531 -1.269531 33.109375 -0.878906 32.140625 -0.546875 C 31.179688 -0.210938 29.914062 0.0820312 28.34375 0.34375 C 26.78125 0.613281 25.164062 0.75 23.5 0.75 C 19.664062 0.75 16.03125 -0.191406 12.59375 -2.078125 C 9.164062 -3.960938 6.398438 -6.550781 4.296875 -9.84375 C 2.203125 -13.144531 1.15625 -16.710938 1.15625 -20.546875 C 1.15625 -23.453125 1.769531 -26.238281 3 -28.90625 C 4.226562 -31.570312 5.867188 -33.851562 7.921875 -35.75 C 9.972656 -37.644531 12.363281 -39.160156 15.09375 -40.296875 C 17.832031 -41.429688 20.632812 -42 23.5 -42 C 26.164062 -42 28.625 -41.679688 30.875 -41.046875 C 33.125 -40.410156 34.71875 -39.78125 35.65625 -39.15625 L 37.046875 -38.203125 L 33.046875 -30.203125 C 32.816406 -30.398438 32.46875 -30.640625 32 -30.921875 C 31.53125 -31.203125 30.59375 -31.578125 29.1875 -32.046875 C 27.789062 -32.515625 26.378906 -32.75 24.953125 -32.75 C 22.679688 -32.75 20.644531 -32.378906 18.84375 -31.640625 C 17.050781 -30.910156 15.628906 -29.945312 14.578125 -28.75 C 13.523438 -27.550781 12.722656 -26.257812 12.171875 -24.875 C 11.617188 -23.488281 11.34375 -22.082031 11.34375 -20.65625 C 11.34375 -17.519531 12.519531 -14.707031 14.875 -12.21875 C 17.226562 -9.738281 20.585938 -8.5 24.953125 -8.5 Z M 24.953125 -8.5 "/></g></g></g><g fill="#a8d4d6" fill-opacity="1"><g transform="translate(76.074845, 71.99999)"><g><path d="M 23.953125 -41.25 L 40.59375 0 L 30.5 0 L 27.453125 -8.25 L 11.75 -8.25 L 8.703125 0 L -1.40625 0 L 15.25 -41.25 Z M 24.25 -16.5 L 19.65625 -28.5 L 19.546875 -28.5 L 14.953125 -16.5 Z M 24.25 -16.5 "/></g></g></g><g fill="#a8d4d6" fill-opacity="1"><g transform="translate(115.468863, 71.99999)"><g><path d="M 18.203125 -42 C 20.429688 -42 22.613281 -41.671875 24.75 -41.015625 C 26.882812 -40.367188 28.46875 -39.726562 29.5 -39.09375 L 31 -38.09375 L 27.203125 -30.59375 C 26.898438 -30.800781 26.484375 -31.0625 25.953125 -31.375 C 25.421875 -31.6875 24.421875 -32.109375 22.953125 -32.640625 C 21.484375 -33.179688 20.113281 -33.453125 18.84375 -33.453125 C 17.28125 -33.453125 16.070312 -33.117188 15.21875 -32.453125 C 14.375 -31.785156 13.953125 -30.882812 13.953125 -29.75 C 13.953125 -29.1875 14.148438 -28.660156 14.546875 -28.171875 C 14.953125 -27.691406 15.632812 -27.175781 16.59375 -26.625 C 17.5625 -26.070312 18.410156 -25.628906 19.140625 -25.296875 C 19.878906 -24.960938 21.015625 -24.460938 22.546875 -23.796875 C 25.210938 -22.660156 27.488281 -21.117188 29.375 -19.171875 C 31.257812 -17.222656 32.203125 -15.015625 32.203125 -12.546875 C 32.203125 -10.179688 31.773438 -8.113281 30.921875 -6.34375 C 30.078125 -4.582031 28.910156 -3.203125 27.421875 -2.203125 C 25.941406 -1.203125 24.300781 -0.460938 22.5 0.015625 C 20.695312 0.503906 18.75 0.75 16.65625 0.75 C 14.851562 0.75 13.082031 0.566406 11.34375 0.203125 C 9.613281 -0.160156 8.164062 -0.617188 7 -1.171875 C 5.832031 -1.722656 4.78125 -2.265625 3.84375 -2.796875 C 2.914062 -3.328125 2.234375 -3.78125 1.796875 -4.15625 L 1.15625 -4.703125 L 5.84375 -12.59375 C 6.25 -12.257812 6.800781 -11.832031 7.5 -11.3125 C 8.195312 -10.800781 9.4375 -10.113281 11.21875 -9.25 C 13.007812 -8.382812 14.585938 -7.953125 15.953125 -7.953125 C 19.921875 -7.953125 21.90625 -9.300781 21.90625 -12 C 21.90625 -12.5625 21.757812 -13.082031 21.46875 -13.5625 C 21.1875 -14.050781 20.6875 -14.535156 19.96875 -15.015625 C 19.257812 -15.503906 18.628906 -15.890625 18.078125 -16.171875 C 17.523438 -16.453125 16.625 -16.882812 15.375 -17.46875 C 14.125 -18.050781 13.195312 -18.492188 12.59375 -18.796875 C 10.09375 -20.035156 8.160156 -21.578125 6.796875 -23.421875 C 5.429688 -25.273438 4.75 -27.269531 4.75 -29.40625 C 4.75 -33.101562 6.113281 -36.125 8.84375 -38.46875 C 11.582031 -40.820312 14.703125 -42 18.203125 -42 Z M 18.203125 -42 "/></g></g></g><g fill="#a8d4d6" fill-opacity="1"><g transform="translate(150.26366, 71.99999)"><g><path d="M 12.40625 -41.25 L 12.40625 0 L 3 0 L 3 -41.25 Z M 12.40625 -41.25 "/></g></g></g><g fill="#a8d4d6" fill-opacity="1"><g transform="translate(166.861266, 71.99999)"><g><path d="M 26.59375 -41.25 L 26.59375 -33 L 12.40625 -33 L 12.40625 -24.796875 L 26 -24.796875 L 26 -16.546875 L 12.40625 -16.546875 L 12.40625 -8.25 L 26.59375 -8.25 L 26.59375 0 L 3 0 L 3 -41.25 Z M 26.59375 -41.25 "/></g></g></g><g fill="#a8d4d6" fill-opacity="1"><g transform="translate(197.056775, 71.99999)"><g><path d="M 3 -41.25 L 17.75 -41.25 C 21.71875 -41.25 24.953125 -40.191406 27.453125 -38.078125 C 29.953125 -35.960938 31.203125 -32.9375 31.203125 -29 C 31.203125 -25.96875 30.441406 -23.425781 28.921875 -21.375 C 27.410156 -19.320312 25.351562 -17.878906 22.75 -17.046875 L 36.953125 0 L 25 0 L 12.40625 -16.296875 L 12.40625 0 L 3 0 Z M 12.40625 -22.953125 L 13.5 -22.953125 C 14.363281 -22.953125 15.09375 -22.96875 15.6875 -23 C 16.289062 -23.03125 16.976562 -23.144531 17.75 -23.34375 C 18.519531 -23.550781 19.132812 -23.835938 19.59375 -24.203125 C 20.0625 -24.566406 20.460938 -25.097656 20.796875 -25.796875 C 21.128906 -26.492188 21.296875 -27.34375 21.296875 -28.34375 C 21.296875 -29.34375 21.128906 -30.191406 20.796875 -30.890625 C 20.460938 -31.597656 20.0625 -32.132812 19.59375 -32.5 C 19.132812 -32.863281 18.519531 -33.144531 17.75 -33.34375 C 16.976562 -33.550781 16.289062 -33.671875 15.6875 -33.703125 C 15.09375 -33.734375 14.363281 -33.75 13.5 -33.75 L 12.40625 -33.75 Z M 12.40625 -22.953125 "/></g></g></g><g fill="#a8d4d6" fill-opacity="1"><g transform="translate(234.051241, 71.99999)"><g><path d="M 18.203125 -42 C 20.429688 -42 22.613281 -41.671875 24.75 -41.015625 C 26.882812 -40.367188 28.46875 -39.726562 29.5 -39.09375 L 31 -38.09375 L 27.203125 -30.59375 C 26.898438 -30.800781 26.484375 -31.0625 25.953125 -31.375 C 25.421875 -31.6875 24.421875 -32.109375 22.953125 -32.640625 C 21.484375 -33.179688 20.113281 -33.453125 18.84375 -33.453125 C 17.28125 -33.453125 16.070312 -33.117188 15.21875 -32.453125 C 14.375 -31.785156 13.953125 -30.882812 13.953125 -29.75 C 13.953125 -29.1875 14.148438 -28.660156 14.546875 -28.171875 C 14.953125 -27.691406 15.632812 -27.175781 16.59375 -26.625 C 17.5625 -26.070312 18.410156 -25.628906 19.140625 -25.296875 C 19.878906 -24.960938 21.015625 -24.460938 22.546875 -23.796875 C 25.210938 -22.660156 27.488281 -21.117188 29.375 -19.171875 C 31.257812 -17.222656 32.203125 -15.015625 32.203125 -12.546875 C 32.203125 -10.179688 31.773438 -8.113281 30.921875 -6.34375 C 30.078125 -4.582031 28.910156 -3.203125 27.421875 -2.203125 C 25.941406 -1.203125 24.300781 -0.460938 22.5 0.015625 C 20.695312 0.503906 18.75 0.75 16.65625 0.75 C 14.851562 0.75 13.082031 0.566406 11.34375 0.203125 C 9.613281 -0.160156 8.164062 -0.617188 7 -1.171875 C 5.832031 -1.722656 4.78125 -2.265625 3.84375 -2.796875 C 2.914062 -3.328125 2.234375 -3.78125 1.796875 -4.15625 L 1.15625 -4.703125 L 5.84375 -12.59375 C 6.25 -12.257812 6.800781 -11.832031 7.5 -11.3125 C 8.195312 -10.800781 9.4375 -10.113281 11.21875 -9.25 C 13.007812 -8.382812 14.585938 -7.953125 15.953125 -7.953125 C 19.921875 -7.953125 21.90625 -9.300781 21.90625 -12 C 21.90625 -12.5625 21.757812 -13.082031 21.46875 -13.5625 C 21.1875 -14.050781 20.6875 -14.535156 19.96875 -15.015625 C 19.257812 -15.503906 18.628906 -15.890625 18.078125 -16.171875 C 17.523438 -16.453125 16.625 -16.882812 15.375 -17.46875 C 14.125 -18.050781 13.195312 -18.492188 12.59375 -18.796875 C 10.09375 -20.035156 8.160156 -21.578125 6.796875 -23.421875 C 5.429688 -25.273438 4.75 -27.269531 4.75 -29.40625 C 4.75 -33.101562 6.113281 -36.125 8.84375 -38.46875 C 11.582031 -40.820312 14.703125 -42 18.203125 -42 Z M 18.203125 -42 "/></g></g></g><g clip-path="url(#c1fd228f59)"><path stroke-linecap="butt" transform="matrix(0.75, 0, 0, 0.75, 0.0000025, 0.000002)" fill="none" stroke-linejoin="miter" d="M 14.999999 -0.00000266667 L 385.000044 -0.00000266667 C 388.979211 -0.00000266667 392.791711 1.578123 395.604212 4.395831 C 398.42192 7.208332 400.000046 11.020832 400.000046 14.999999 L 400.000046 185.00002 C 400.000046 193.286479 393.286503 200.000022 385.000044 200.000022 L 14.999999 200.000022 C 11.020831 200.000022 7.208331 198.421897 4.395831 195.604188 C 1.578122 192.791688 -0.00000333333 188.979187 -0.00000333333 185.00002 L -0.00000333333 14.999999 C -0.00000333333 6.71354 6.713539 -0.00000266667 14.999999 -0.00000266667 Z M 14.999999 -0.00000266667 " stroke="#a8d4d6" stroke-width="20" stroke-opacity="1" stroke-miterlimit="4"/></g><g fill="#a8d4d6" fill-opacity="1"><g transform="translate(35.107244, 117.750002)"><g><path d="M 26.59375 -41.25 L 26.59375 -33 L 12.40625 -33 L 12.40625 -24.796875 L 26 -24.796875 L 26 -16.546875 L 12.40625 -16.546875 L 12.40625 -8.25 L 26.59375 -8.25 L 26.59375 0 L 3 0 L 3 -41.25 Z M 26.59375 -41.25 "/></g></g></g><g fill="#a8d4d6" fill-opacity="1"><g transform="translate(64.10276, 117.750002)"><g><path d="M 41.59375 0 L 29.453125 0 L 19.703125 -14.046875 L 9.953125 0 L -1.703125 0 L 13.90625 -22.203125 L 0.90625 -41.25 L 12.09375 -41.25 L 19.703125 -30 L 27.296875 -41.25 L 39 -41.25 L 25.5 -22.203125 Z M 41.59375 0 "/></g></g></g><g fill="#a8d4d6" fill-opacity="1"><g transform="translate(103.996587, 117.750002)"><g><path d="M 3 -41.25 L 18.046875 -41.25 C 22.242188 -41.25 25.644531 -40.164062 28.25 -38 C 30.851562 -35.832031 32.15625 -32.679688 32.15625 -28.546875 C 32.15625 -24.410156 30.835938 -21.164062 28.203125 -18.8125 C 25.566406 -16.46875 22.179688 -15.296875 18.046875 -15.296875 L 12.40625 -15.296875 L 12.40625 0 L 3 0 Z M 12.40625 -22.796875 L 15.046875 -22.796875 C 17.148438 -22.796875 18.875 -23.21875 20.21875 -24.0625 C 21.570312 -24.914062 22.25 -26.3125 22.25 -28.25 C 22.25 -30.21875 21.570312 -31.625 20.21875 -32.46875 C 18.875 -33.320312 17.148438 -33.75 15.046875 -33.75 L 12.40625 -33.75 Z M 12.40625 -22.796875 "/></g></g></g><g fill="#a8d4d6" fill-opacity="1"><g transform="translate(137.29143, 117.750002)"><g><path d="M 3 -41.25 L 17.75 -41.25 C 21.71875 -41.25 24.953125 -40.191406 27.453125 -38.078125 C 29.953125 -35.960938 31.203125 -32.9375 31.203125 -29 C 31.203125 -25.96875 30.441406 -23.425781 28.921875 -21.375 C 27.410156 -19.320312 25.351562 -17.878906 22.75 -17.046875 L 36.953125 0 L 25 0 L 12.40625 -16.296875 L 12.40625 0 L 3 0 Z M 12.40625 -22.953125 L 13.5 -22.953125 C 14.363281 -22.953125 15.09375 -22.96875 15.6875 -23 C 16.289062 -23.03125 16.976562 -23.144531 17.75 -23.34375 C 18.519531 -23.550781 19.132812 -23.835938 19.59375 -24.203125 C 20.0625 -24.566406 20.460938 -25.097656 20.796875 -25.796875 C 21.128906 -26.492188 21.296875 -27.34375 21.296875 -28.34375 C 21.296875 -29.34375 21.128906 -30.191406 20.796875 -30.890625 C 20.460938 -31.597656 20.0625 -32.132812 19.59375 -32.5 C 19.132812 -32.863281 18.519531 -33.144531 17.75 -33.34375 C 16.976562 -33.550781 16.289062 -33.671875 15.6875 -33.703125 C 15.09375 -33.734375 14.363281 -33.75 13.5 -33.75 L 12.40625 -33.75 Z M 12.40625 -22.953125 "/></g></g></g><g fill="#a8d4d6" fill-opacity="1"><g transform="translate(173.085892, 117.750002)"><g><path d="M 26.59375 -41.25 L 26.59375 -33 L 12.40625 -33 L 12.40625 -24.796875 L 26 -24.796875 L 26 -16.546875 L 12.40625 -16.546875 L 12.40625 -8.25 L 26.59375 -8.25 L 26.59375 0 L 3 0 L 3 -41.25 Z M 26.59375 -41.25 "/></g></g></g><g fill="#a8d4d6" fill-opacity="1"><g transform="translate(202.081408, 117.750002)"><g><path d="M 18.203125 -42 C 20.429688 -42 22.613281 -41.671875 24.75 -41.015625 C 26.882812 -40.367188 28.46875 -39.726562 29.5 -39.09375 L 31 -38.09375 L 27.203125 -30.59375 C 26.898438 -30.800781 26.484375 -31.0625 25.953125 -31.375 C 25.421875 -31.6875 24.421875 -32.109375 22.953125 -32.640625 C 21.484375 -33.179688 20.113281 -33.453125 18.84375 -33.453125 C 17.28125 -33.453125 16.070312 -33.117188 15.21875 -32.453125 C 14.375 -31.785156 13.953125 -30.882812 13.953125 -29.75 C 13.953125 -29.1875 14.148438 -28.660156 14.546875 -28.171875 C 14.953125 -27.691406 15.632812 -27.175781 16.59375 -26.625 C 17.5625 -26.070312 18.410156 -25.628906 19.140625 -25.296875 C 19.878906 -24.960938 21.015625 -24.460938 22.546875 -23.796875 C 25.210938 -22.660156 27.488281 -21.117188 29.375 -19.171875 C 31.257812 -17.222656 32.203125 -15.015625 32.203125 -12.546875 C 32.203125 -10.179688 31.773438 -8.113281 30.921875 -6.34375 C 30.078125 -4.582031 28.910156 -3.203125 27.421875 -2.203125 C 25.941406 -1.203125 24.300781 -0.460938 22.5 0.015625 C 20.695312 0.503906 18.75 0.75 16.65625 0.75 C 14.851562 0.75 13.082031 0.566406 11.34375 0.203125 C 9.613281 -0.160156 8.164062 -0.617188 7 -1.171875 C 5.832031 -1.722656 4.78125 -2.265625 3.84375 -2.796875 C 2.914062 -3.328125 2.234375 -3.78125 1.796875 -4.15625 L 1.15625 -4.703125 L 5.84375 -12.59375 C 6.25 -12.257812 6.800781 -11.832031 7.5 -11.3125 C 8.195312 -10.800781 9.4375 -10.113281 11.21875 -9.25 C 13.007812 -8.382812 14.585938 -7.953125 15.953125 -7.953125 C 19.921875 -7.953125 21.90625 -9.300781 21.90625 -12 C 21.90625 -12.5625 21.757812 -13.082031 21.46875 -13.5625 C 21.1875 -14.050781 20.6875 -14.535156 19.96875 -15.015625 C 19.257812 -15.503906 18.628906 -15.890625 18.078125 -16.171875 C 17.523438 -16.453125 16.625 -16.882812 15.375 -17.46875 C 14.125 -18.050781 13.195312 -18.492188 12.59375 -18.796875 C 10.09375 -20.035156 8.160156 -21.578125 6.796875 -23.421875 C 5.429688 -25.273438 4.75 -27.269531 4.75 -29.40625 C 4.75 -33.101562 6.113281 -36.125 8.84375 -38.46875 C 11.582031 -40.820312 14.703125 -42 18.203125 -42 Z M 18.203125 -42 "/></g></g></g><g fill="#a8d4d6" fill-opacity="1"><g transform="translate(234.676307, 117.750002)"><g><path d="M 18.203125 -42 C 20.429688 -42 22.613281 -41.671875 24.75 -41.015625 C 26.882812 -40.367188 28.46875 -39.726562 29.5 -39.09375 L 31 -38.09375 L 27.203125 -30.59375 C 26.898438 -30.800781 26.484375 -31.0625 25.953125 -31.375 C 25.421875 -31.6875 24.421875 -32.109375 22.953125 -32.640625 C 21.484375 -33.179688 20.113281 -33.453125 18.84375 -33.453125 C 17.28125 -33.453125 16.070312 -33.117188 15.21875 -32.453125 C 14.375 -31.785156 13.953125 -30.882812 13.953125 -29.75 C 13.953125 -29.1875 14.148438 -28.660156 14.546875 -28.171875 C 14.953125 -27.691406 15.632812 -27.175781 16.59375 -26.625 C 17.5625 -26.070312 18.410156 -25.628906 19.140625 -25.296875 C 19.878906 -24.960938 21.015625 -24.460938 22.546875 -23.796875 C 25.210938 -22.660156 27.488281 -21.117188 29.375 -19.171875 C 31.257812 -17.222656 32.203125 -15.015625 32.203125 -12.546875 C 32.203125 -10.179688 31.773438 -8.113281 30.921875 -6.34375 C 30.078125 -4.582031 28.910156 -3.203125 27.421875 -2.203125 C 25.941406 -1.203125 24.300781 -0.460938 22.5 0.015625 C 20.695312 0.503906 18.75 0.75 16.65625 0.75 C 14.851562 0.75 13.082031 0.566406 11.34375 0.203125 C 9.613281 -0.160156 8.164062 -0.617188 7 -1.171875 C 5.832031 -1.722656 4.78125 -2.265625 3.84375 -2.796875 C 2.914062 -3.328125 2.234375 -3.78125 1.796875 -4.15625 L 1.15625 -4.703125 L 5.84375 -12.59375 C 6.25 -12.257812 6.800781 -11.832031 7.5 -11.3125 C 8.195312 -10.800781 9.4375 -10.113281 11.21875 -9.25 C 13.007812 -8.382812 14.585938 -7.953125 15.953125 -7.953125 C 19.921875 -7.953125 21.90625 -9.300781 21.90625 -12 C 21.90625 -12.5625 21.757812 -13.082031 21.46875 -13.5625 C 21.1875 -14.050781 20.6875 -14.535156 19.96875 -15.015625 C 19.257812 -15.503906 18.628906 -15.890625 18.078125 -16.171875 C 17.523438 -16.453125 16.625 -16.882812 15.375 -17.46875 C 14.125 -18.050781 13.195312 -18.492188 12.59375 -18.796875 C 10.09375 -20.035156 8.160156 -21.578125 6.796875 -23.421875 C 5.429688 -25.273438 4.75 -27.269531 4.75 -29.40625 C 4.75 -33.101562 6.113281 -36.125 8.84375 -38.46875 C 11.582031 -40.820312 14.703125 -42 18.203125 -42 Z M 18.203125 -42 "/></g></g></g></svg>